<svg width="18" height="18" viewBox="0 0 18 18" fill="none" xmlns="http://www.w3.org/2000/svg">
<path d="M4.5 3H10.5C11.2956 3 12.0587 3.31607 12.6213 3.87868C13.1839 4.44129 13.5 5.20435 13.5 6C13.5 6.79565 13.1839 7.55871 12.6213 8.12132C12.0587 8.68393 11.2956 9 10.5 9H4.5V3Z" stroke="white" stroke-width="2" stroke-linecap="round" stroke-linejoin="round"/>
<path d="M4.5 9H11.25C12.0456 9 12.8087 9.31607 13.3713 9.87868C13.9339 10.4413 14.25 11.2044 14.25 12C14.25 12.7956 13.9339 13.5587 13.3713 14.1213C12.8087 14.6839 12.0456 15 11.25 15H4.5V9Z" stroke="white" stroke-width="2" stroke-linecap="round" stroke-linejoin="round"/>
</svg>
