<svg width="18" height="18" viewBox="0 0 18 18" fill="none" xmlns="http://www.w3.org/2000/svg">
<path d="M6 4.5H15.75" stroke="white" stroke-opacity="0.8" stroke-linecap="round" stroke-linejoin="round"/>
<path d="M6 9H15.75" stroke="white" stroke-opacity="0.8" stroke-linecap="round" stroke-linejoin="round"/>
<path d="M6 13.5H15.75" stroke="white" stroke-opacity="0.8" stroke-linecap="round" stroke-linejoin="round"/>
<path d="M2.002 3.50628C1.946 3.52762 1.858 3.55295 1.738 3.58228C1.618 3.61162 1.52067 3.63162 1.446 3.64228L1.406 3.41828C1.542 3.38895 1.68067 3.33962 1.822 3.27028C1.966 3.20095 2.086 3.12495 2.182 3.04228H2.186L2.43 3.08228V5.33828L2.926 5.37428V5.57028H1.486V5.37428L2.002 5.33828V3.50628Z" fill="white" fill-opacity="0.8"/>
<path d="M1.438 10.013C1.68333 9.8743 1.90867 9.71564 2.114 9.53697C2.31933 9.35564 2.482 9.16897 2.602 8.97697C2.72467 8.78497 2.786 8.60364 2.786 8.43297C2.786 8.2863 2.742 8.1703 2.654 8.08497C2.566 7.99697 2.44067 7.95297 2.278 7.95297C2.126 7.95297 1.99533 7.98364 1.886 8.04497C1.77667 8.10364 1.67533 8.17697 1.582 8.26497L1.454 8.08497C1.54733 7.97564 1.68067 7.87697 1.854 7.78897C2.02733 7.6983 2.21267 7.65297 2.41 7.65297C2.59667 7.65297 2.754 7.68764 2.882 7.75697C3.01 7.82364 3.10467 7.91164 3.166 8.02097C3.22733 8.1303 3.258 8.2503 3.258 8.38097C3.258 8.64497 3.13133 8.91697 2.878 9.19697C2.62467 9.4743 2.30733 9.72364 1.926 9.94497L3.166 9.85297L3.306 9.50897L3.51 9.54897L3.406 10.181H1.498L1.438 10.013Z" fill="white" fill-opacity="0.8"/>
<path d="M1.878 15.0059C1.81667 15.0059 1.74867 15.0006 1.674 14.9899C1.59933 14.9819 1.53667 14.9713 1.486 14.9579V14.7299C1.574 14.7566 1.67933 14.7699 1.802 14.7699C2.01267 14.7699 2.194 14.7366 2.346 14.6699C2.50067 14.6033 2.618 14.5126 2.698 14.3979C2.78067 14.2833 2.822 14.1579 2.822 14.0219C2.822 13.8406 2.766 13.7006 2.654 13.6019C2.54467 13.5006 2.37533 13.4486 2.146 13.4459L2.022 13.4779C1.934 13.5046 1.89133 13.5166 1.894 13.5139L1.826 13.3019C1.938 13.2806 2.04333 13.2486 2.142 13.2059C2.30733 13.1366 2.44067 13.0446 2.542 12.9299C2.64333 12.8126 2.694 12.6886 2.694 12.5579C2.694 12.4059 2.64867 12.2953 2.558 12.2259C2.47 12.1539 2.35667 12.1179 2.218 12.1179C2.098 12.1179 1.982 12.1393 1.87 12.1819C1.76067 12.2246 1.666 12.2766 1.586 12.3379L1.478 12.1579C1.55267 12.0833 1.67133 12.0113 1.834 11.9419C1.99933 11.8699 2.16733 11.8339 2.338 11.8339C2.58067 11.8339 2.77667 11.8873 2.926 11.9939C3.07533 12.0979 3.15 12.2579 3.15 12.4739C3.15 12.6633 3.07533 12.8353 2.926 12.9899C2.77667 13.1446 2.59933 13.2579 2.394 13.3299C2.42067 13.3273 2.458 13.3259 2.506 13.3259C2.66333 13.3259 2.802 13.3553 2.922 13.4139C3.042 13.4726 3.134 13.5526 3.198 13.6539C3.26467 13.7526 3.298 13.8646 3.298 13.9899C3.298 14.1846 3.23933 14.3593 3.122 14.5139C3.00467 14.6686 2.838 14.7886 2.622 14.8739C2.40867 14.9619 2.16067 15.0059 1.878 15.0059Z" fill="white" fill-opacity="0.8"/>
</svg>
