<svg width="18" height="18" viewBox="0 0 18 18" fill="none" xmlns="http://www.w3.org/2000/svg">
<path d="M4.06 14.154C3.57467 14.154 3.14067 14.112 2.758 14.028C2.37533 13.944 1.95533 13.832 1.498 13.692C1.218 13.5893 1.008 13.5333 0.868 13.524L0.98 10.99H1.876L2.114 12.81C2.27267 12.9593 2.52933 13.0947 2.884 13.216C3.248 13.328 3.64467 13.384 4.074 13.384C4.78333 13.384 5.32 13.2253 5.684 12.908C6.05733 12.5907 6.244 12.152 6.244 11.592C6.244 11.228 6.14133 10.9153 5.936 10.654C5.74 10.3927 5.474 10.1687 5.138 9.982C4.81133 9.79533 4.35867 9.576 3.78 9.324C3.25733 9.09067 2.8 8.85267 2.408 8.61C2.02533 8.36733 1.68933 8.04533 1.4 7.644C1.12 7.23333 0.98 6.74333 0.98 6.174C0.98 5.66067 1.11533 5.20333 1.386 4.802C1.666 4.39133 2.06267 4.06933 2.576 3.836C3.09867 3.60267 3.70533 3.486 4.396 3.486C4.82533 3.486 5.20333 3.51867 5.53 3.584C5.866 3.64933 6.244 3.738 6.664 3.85C6.85067 3.91533 7.00933 3.95733 7.14 3.976L7.056 6.328H6.202L5.922 4.606C5.82867 4.51267 5.63267 4.424 5.334 4.34C5.04467 4.256 4.72733 4.214 4.382 4.214C3.738 4.214 3.248 4.34933 2.912 4.62C2.58533 4.89067 2.422 5.28267 2.422 5.796C2.422 6.16933 2.52 6.482 2.716 6.734C2.92133 6.986 3.17333 7.20067 3.472 7.378C3.77067 7.55533 4.24667 7.798 4.9 8.106C5.50667 8.39533 6.00133 8.65667 6.384 8.89C6.76667 9.12333 7.09333 9.43133 7.364 9.814C7.644 10.1873 7.784 10.6353 7.784 11.158C7.784 11.6527 7.644 12.1287 7.364 12.586C7.09333 13.0433 6.67333 13.4213 6.104 13.72C5.544 14.0093 4.86267 14.154 4.06 14.154ZM12.5965 15.82H8.6485V15.064L10.2585 13.496C10.6412 13.132 10.9258 12.838 11.1125 12.614C11.3085 12.3807 11.4392 12.1753 11.5045 11.998C11.5792 11.8113 11.6165 11.6153 11.6165 11.41C11.6165 11.1113 11.5278 10.8873 11.3505 10.738C11.1825 10.5887 10.9585 10.514 10.6785 10.514C10.3985 10.514 10.1418 10.57 9.9085 10.682C9.6845 10.7847 9.45117 10.9293 9.2085 11.116L8.7185 10.472C8.98917 10.2387 9.28317 10.052 9.6005 9.912C9.92717 9.772 10.2912 9.702 10.6925 9.702C11.2898 9.702 11.7565 9.85133 12.0925 10.15C12.4378 10.4393 12.6105 10.8407 12.6105 11.354C12.6105 11.662 12.5452 11.9467 12.4145 12.208C12.2932 12.46 12.1112 12.7213 11.8685 12.992C11.6352 13.2533 11.3458 13.5473 11.0005 13.874L9.8665 14.952H12.5965V15.82Z" fill="white" fill-opacity="0.8"/>
</svg>
