<svg width="18" height="18" viewBox="0 0 18 18" fill="none" xmlns="http://www.w3.org/2000/svg">
<path d="M4.06 14.154C3.57467 14.154 3.14067 14.112 2.758 14.028C2.37533 13.944 1.95533 13.832 1.498 13.692C1.218 13.5893 1.008 13.5333 0.868 13.524L0.98 10.99H1.876L2.114 12.81C2.27267 12.9593 2.52933 13.0947 2.884 13.216C3.248 13.328 3.64467 13.384 4.074 13.384C4.78333 13.384 5.32 13.2253 5.684 12.908C6.05733 12.5907 6.244 12.152 6.244 11.592C6.244 11.228 6.14133 10.9153 5.936 10.654C5.74 10.3927 5.474 10.1687 5.138 9.982C4.81133 9.79533 4.35867 9.576 3.78 9.324C3.25733 9.09067 2.8 8.85267 2.408 8.61C2.02533 8.36733 1.68933 8.04533 1.4 7.644C1.12 7.23333 0.98 6.74333 0.98 6.174C0.98 5.66067 1.11533 5.20333 1.386 4.802C1.666 4.39133 2.06267 4.06933 2.576 3.836C3.09867 3.60267 3.70533 3.486 4.396 3.486C4.82533 3.486 5.20333 3.51867 5.53 3.584C5.866 3.64933 6.244 3.738 6.664 3.85C6.85067 3.91533 7.00933 3.95733 7.14 3.976L7.056 6.328H6.202L5.922 4.606C5.82867 4.51267 5.63267 4.424 5.334 4.34C5.04467 4.256 4.72733 4.214 4.382 4.214C3.738 4.214 3.248 4.34933 2.912 4.62C2.58533 4.89067 2.422 5.28267 2.422 5.796C2.422 6.16933 2.52 6.482 2.716 6.734C2.92133 6.986 3.17333 7.20067 3.472 7.378C3.77067 7.55533 4.24667 7.798 4.9 8.106C5.50667 8.39533 6.00133 8.65667 6.384 8.89C6.76667 9.12333 7.09333 9.43133 7.364 9.814C7.644 10.1873 7.784 10.6353 7.784 11.158C7.784 11.6527 7.644 12.1287 7.364 12.586C7.09333 13.0433 6.67333 13.4213 6.104 13.72C5.544 14.0093 4.86267 14.154 4.06 14.154ZM9.1945 9.058C9.6425 8.78733 10.1418 8.41867 10.6925 7.952C11.2525 7.48533 11.7425 6.972 12.1625 6.412C12.5918 5.852 12.8065 5.32467 12.8065 4.83C12.8065 4.41933 12.6852 4.088 12.4425 3.836C12.2092 3.584 11.8778 3.458 11.4485 3.458C11.0658 3.458 10.7065 3.542 10.3705 3.71C10.0438 3.86867 9.7825 4.046 9.5865 4.242L9.1385 3.752C9.35317 3.472 9.69383 3.206 10.1605 2.954C10.6365 2.69267 11.1592 2.562 11.7285 2.562C12.4752 2.562 13.0538 2.744 13.4645 3.108C13.8845 3.472 14.0945 3.95733 14.0945 4.564C14.0945 5.236 13.7258 5.98733 12.9885 6.818C12.2605 7.63933 11.4065 8.344 10.4265 8.932L13.4645 8.722L13.9825 7.672L14.6685 7.812L14.3185 9.688H9.4325L9.1945 9.058Z" fill="white" fill-opacity="0.8"/>
</svg>
